<svg id="visual" viewBox="0 0 900 600" width="900" height="600" xmlns="http://www.w3.org/2000/svg" xmlns:xlink="http://www.w3.org/1999/xlink" version="1.1"><rect x="0" y="0" width="900" height="600" fill="#001220"></rect><path d="M0 386L21.5 393.8C43 401.7 86 417.3 128.8 415.2C171.7 413 214.3 393 257.2 390.2C300 387.3 343 401.7 385.8 407C428.7 412.3 471.3 408.7 514.2 410.5C557 412.3 600 419.7 642.8 420C685.7 420.3 728.3 413.7 771.2 404.2C814 394.7 857 382.3 878.5 376.2L900 370L900 601L878.5 601C857 601 814 601 771.2 601C728.3 601 685.7 601 642.8 601C600 601 557 601 514.2 601C471.3 601 428.7 601 385.8 601C343 601 300 601 257.2 601C214.3 601 171.7 601 128.8 601C86 601 43 601 21.5 601L0 601Z" fill="#69fadb"></path><path d="M0 437L21.5 434.5C43 432 86 427 128.8 423.5C171.7 420 214.3 418 257.2 418C300 418 343 420 385.8 420.3C428.7 420.7 471.3 419.3 514.2 423C557 426.7 600 435.3 642.8 438.3C685.7 441.3 728.3 438.7 771.2 430.2C814 421.7 857 407.3 878.5 400.2L900 393L900 601L878.5 601C857 601 814 601 771.2 601C728.3 601 685.7 601 642.8 601C600 601 557 601 514.2 601C471.3 601 428.7 601 385.8 601C343 601 300 601 257.2 601C214.3 601 171.7 601 128.8 601C86 601 43 601 21.5 601L0 601Z" fill="#00d8f0"></path><path d="M0 475L21.5 474C43 473 86 471 128.8 469.8C171.7 468.7 214.3 468.3 257.2 470.7C300 473 343 478 385.8 480.8C428.7 483.7 471.3 484.3 514.2 477.3C557 470.3 600 455.7 642.8 456.8C685.7 458 728.3 475 771.2 486.2C814 497.3 857 502.7 878.5 505.3L900 508L900 601L878.5 601C857 601 814 601 771.2 601C728.3 601 685.7 601 642.8 601C600 601 557 601 514.2 601C471.3 601 428.7 601 385.8 601C343 601 300 601 257.2 601C214.3 601 171.7 601 128.8 601C86 601 43 601 21.5 601L0 601Z" fill="#00b1f0"></path><path d="M0 515L21.5 519C43 523 86 531 128.8 535.3C171.7 539.7 214.3 540.3 257.2 539.2C300 538 343 535 385.8 525.2C428.7 515.3 471.3 498.7 514.2 492.7C557 486.7 600 491.3 642.8 495.3C685.7 499.3 728.3 502.7 771.2 508.7C814 514.7 857 523.3 878.5 527.7L900 532L900 601L878.5 601C857 601 814 601 771.2 601C728.3 601 685.7 601 642.8 601C600 601 557 601 514.2 601C471.3 601 428.7 601 385.8 601C343 601 300 601 257.2 601C214.3 601 171.7 601 128.8 601C86 601 43 601 21.5 601L0 601Z" fill="#0085e3"></path><path d="M0 568L21.5 565.5C43 563 86 558 128.8 556.5C171.7 555 214.3 557 257.2 560.3C300 563.7 343 568.3 385.8 566.3C428.7 564.3 471.3 555.7 514.2 548.3C557 541 600 535 642.8 537.8C685.7 540.7 728.3 552.3 771.2 554.8C814 557.3 857 550.7 878.5 547.3L900 544L900 601L878.5 601C857 601 814 601 771.2 601C728.3 601 685.7 601 642.8 601C600 601 557 601 514.2 601C471.3 601 428.7 601 385.8 601C343 601 300 601 257.2 601C214.3 601 171.7 601 128.8 601C86 601 43 601 21.5 601L0 601Z" fill="#2455c7"></path></svg>